<svg xmlns="http://www.w3.org/2000/svg" xmlns:xlink="http://www.w3.org/1999/xlink" width="42" height="41" version="1.1" style=""><rect id="backgroundrect" width="100%" height="100%" x="0" y="0" fill="none" stroke="none"/>
    <!-- Generator: sketchtool 49.3 (51167) - http://www.bohemiancoding.com/sketch -->
    <title>E8E9B0E6-A439-4F2B-9F20-EEB4182C0AEE</title>
    <desc>Created with sketchtool.</desc>
    <defs/>
    
<g class="currentLayer" style=""><title>Layer 1</title><g id="Page-1" stroke="#000000" stroke-width="1" fill="none" fill-rule="evenodd" stroke-linecap="round" stroke-linejoin="round" class="selected" stroke-opacity="1">
        <g id="styleguide" stroke="#000000" stroke-width="1.65" fill="none" fill-opacity="1" stroke-opacity="1">
            <g id="Empty-star" fill="none" fill-opacity="1" stroke="#000000" stroke-opacity="1">
                <path d="M20.176249499999997,34.98927960000003 L11.2445175,39.684969000000024 C10.169059400000009,40.25037080000004 8.838879700000007,39.83688840000002 8.273477899999989,38.76143030000003 C8.048331999999988,38.33317729999999 7.9706396999999924,37.8426475 8.052428700000007,37.36578069999996 L9.75823779999999,27.420151000000033 C9.880641200000014,26.706484000000046 9.644034500000004,25.978283600000054 9.125525199999998,25.472861899999998 L1.899602179999988,18.42932780000001 C1.0295383099999924,17.581225099999983 1.0117352400000073,16.188375899999983 1.8598379000000023,15.318311999999992 C2.1975568299999964,14.971848000000023 2.640070140000006,14.746376199999986 3.1188716100000136,14.676802299999963 L13.10485159999999,13.225754499999994 C13.82141390000001,13.121631900000011 14.440858200000008,12.671579299999962 14.761314599999992,12.022263599999974 L19.227180599999997,2.973430760000042 C19.764909700000004,1.8838727099999915 21.084086499999998,1.4365269099999978 22.173644600000003,1.9742559600000504 C22.607512299999996,2.188382479999973 22.958692799999994,2.539563029999954 23.17281940000001,2.973430760000042 L27.6386854,12.022263599999974 C27.959141799999998,12.671579299999962 28.578586099999995,13.121631900000011 29.295148400000002,13.225754499999994 L39.2811284,14.676802299999963 C40.4835271,14.851521100000014 41.316626299999996,15.967895399999975 41.1419075,17.17029409999998 C41.07233360000001,17.649095500000044 40.8468618,18.091608800000017 40.5003978,18.42932780000001 L33.27447480000001,25.472861899999998 C32.7559655,25.978283600000054 32.51935879999999,26.706484000000046 32.6417622,27.420151000000033 L34.3475713,37.36578069999996 C34.5529655,38.56332090000001 33.74867230000001,39.70062389999998 32.55113209999999,39.90601819999995 C32.07426530000001,39.98780720000002 31.583735500000003,39.91011490000005 31.155482500000005,39.684969000000024 L22.223750499999994,34.98927960000003 C21.582837600000005,34.652331799999956 20.8171624,34.652331799999956 20.176249499999997,34.98927960000003 z" id="Star-Copy-2" fill="none" fill-opacity="1" stroke="#000000" stroke-opacity="1"/>
            </g>
        </g>
    </g></g></svg>