<svg width="42" height="41" xmlns="http://www.w3.org/2000/svg">
 <!-- Generator: sketchtool 49.3 (51167) - http://www.bohemiancoding.com/sketch -->
 <title>11ACF47C-9EE9-4E46-AC33-8F10AB129BC5</title>
 <desc>Created with sketchtool.</desc>

 <g>
  <title>background</title>
  <rect fill="none" id="canvas_background" height="402" width="582" y="-1" x="-1"/>
 </g>
 <g>
  <title>Layer 1</title>
  <g stroke-linejoin="round" stroke-linecap="round" fill-rule="evenodd" fill="none" id="Page-1">
   <g stroke-width="1.65" stroke="#000000" id="styleguide">
    <g id="Star">
     <path stroke-width="0" id="svg_1" fill-rule="evenodd" fill="#FFCF3F" d="m20.17625,34.238729l-8.93173,4.69569c-1.07546,0.5654 -2.40564,0.15192 -2.97104,-0.92354c-0.22515,-0.42825 -0.30284,-0.91878 -0.22105,-1.39565l1.70581,-9.94563c0.1224,-0.71367 -0.11421,-1.44187 -0.63271,-1.94729l-7.22593,-7.04353c-0.87006,-0.8481 -0.88786,-2.24095 -0.03976,-3.11102c0.33772,-0.34646 0.78023,-0.57193 1.25903,-0.64151l9.98598,-1.45105c0.71656,-0.10412 1.33601,-0.55417 1.65646,-1.20349l4.46587,-9.04883c0.53773,-1.08956 1.85691,-1.5369 2.94646,-0.99917c0.43387,0.21412 0.78505,0.5653 0.99918,0.99917l4.46587,9.04883c0.32045,0.64932 0.9399,1.09937 1.65646,1.20349l9.98598,1.45105c1.2024,0.17472 2.0355,1.2911 1.86078,2.49349c-0.06958,0.47881 -0.29505,0.92132 -0.64151,1.25904l-7.22593,7.04353c-0.5185,0.50542 -0.75511,1.23362 -0.63271,1.94729l1.70581,9.94563c0.2054,1.19754 -0.5989,2.33484 -1.79644,2.54024c-0.47686,0.08179 -0.96739,0.00409 -1.39565,-0.22105l-8.93173,-4.69569c-0.64091,-0.33695 -1.40659,-0.33695 -2.0475,0z"/>
     <polyline stroke-width="0" points="16.800003051757812,22.54943796992302 20.76000213623047,25.84942576289177 26.700000762939453,18.14947459101677 " id="Path-2"/>
    </g>
   </g>
  </g>
  <rect id="svg_3" height="12.759364" width="14.760833" y="15.855967" x="14.495226" stroke-width="1.5" fill="#FFCF3F"/>
 </g>
</svg>